<svg xmlns="http://www.w3.org/2000/svg" style="display: none">
  <symbol id="icon-cuentas" viewBox="0 0 24 24" fill="none" stroke="currentColor" stroke-width="2" stroke-linecap="round" stroke-linejoin="round">
    <rect x="2" y="5" width="20" height="14" rx="2" />
    <line x1="2" y1="10" x2="22" y2="10" />
  </symbol>
  <symbol id="icon-ingresos" viewBox="0 0 24 24" fill="none" stroke="currentColor" stroke-width="2" stroke-linecap="round" stroke-linejoin="round">
    <line x1="12" y1="19" x2="12" y2="5" />
    <polyline points="5 12 12 5 19 12" />
  </symbol>
  <symbol id="icon-cargos" viewBox="0 0 24 24" fill="none" stroke="currentColor" stroke-width="2" stroke-linecap="round" stroke-linejoin="round">
    <line x1="12" y1="5" x2="12" y2="19" />
    <polyline points="19 12 12 19 5 12" />
  </symbol>
  <symbol id="icon-transferencias" viewBox="0 0 24 24" fill="none" stroke="currentColor" stroke-width="2" stroke-linecap="round" stroke-linejoin="round">
    <polyline points="17 1 21 5 17 9" />
    <path d="M3 11V9a4 4 0 0 1 4-4h14" />
    <polyline points="7 23 3 19 7 15" />
    <path d="M21 13v2a4 4 0 0 1-4 4H3" />
  </symbol>
  <symbol id="icon-estadisticas" viewBox="0 0 24 24" fill="none" stroke="currentColor" stroke-width="2" stroke-linecap="round" stroke-linejoin="round">
    <line x1="4" y1="20" x2="4" y2="14" />
    <line x1="10" y1="20" x2="10" y2="10" />
    <line x1="16" y1="20" x2="16" y2="4" />
  </symbol>
  <symbol id="icon-menu" viewBox="0 0 24 24" fill="none" stroke="currentColor" stroke-width="2" stroke-linecap="round" stroke-linejoin="round">
    <line x1="3" y1="6" x2="21" y2="6" />
    <line x1="3" y1="12" x2="21" y2="12" />
    <line x1="3" y1="18" x2="21" y2="18" />
  </symbol>
  <symbol id="icon-close" viewBox="0 0 24 24" fill="none" stroke="currentColor" stroke-width="2" stroke-linecap="round" stroke-linejoin="round">
    <line x1="18" y1="6" x2="6" y2="18" />
    <line x1="6" y1="6" x2="18" y2="18" />
  </symbol>
  <symbol id="icon-plus" viewBox="0 0 24 24" fill="none" stroke="currentColor" stroke-width="2" stroke-linecap="round" stroke-linejoin="round">
    <line x1="12" y1="5" x2="12" y2="19" />
    <line x1="5" y1="12" x2="19" y2="12" />
  </symbol>
</svg>
